<svg width="27" height="19" viewBox="0 0 27 19" fill="none" xmlns="http://www.w3.org/2000/svg">
<path d="M4.55 18.275C7.35 18.275 8.825 16.375 8.825 13.5V0.824999C8.825 0.624999 8.7 0.499999 8.475 0.499999H6.9C6.675 0.499999 6.55 0.624999 6.55 0.824999V13.65C6.55 15.225 5.85 16.15 4.6 16.15C3.35 16.15 2.65 15.05 2.575 13.3C2.575 13.075 2.45 12.975 2.25 12.975H0.65C0.425 12.975 0.325 13.1 0.325 13.325C0.4 16.275 1.975 18.275 4.55 18.275ZM22.7557 0.224999C21.3807 0.224999 20.4807 0.874998 19.8057 1.8C19.1307 0.874998 18.2557 0.224999 16.8557 0.224999C14.3307 0.224999 12.7807 2.05 12.7807 4.875V17.65C12.7807 17.875 12.9057 18 13.1057 18H14.6807C14.8807 18 15.0057 17.875 15.0057 17.65V4.775C15.0057 3.225 15.6307 2.35 16.8557 2.35C17.9307 2.35 18.6807 3.225 18.6807 4.775V17.65C18.6807 17.875 18.8057 18 19.0057 18H20.5807C20.7807 18 20.9057 17.875 20.9057 17.65V4.775C20.9057 3.225 21.6307 2.35 22.7557 2.35C23.9307 2.35 24.5807 3.225 24.5807 4.775V17.65C24.5807 17.875 24.7057 18 24.9057 18H26.4807C26.7057 18 26.8307 17.875 26.8307 17.65V4.875C26.8307 2.05 25.2557 0.224999 22.7557 0.224999Z" fill="white"/>
</svg>
