<?xml version="1.0" encoding="UTF-8"?>
<svg fill="none" height="36" viewBox="0 0 137 36" width="137" xmlns="http://www.w3.org/2000/svg">
  <path d="M5.46 30.33C8.82 30.33 10.59 28.05 10.59 24.6V9.39C10.59 9.15 10.44 9 10.17 9H8.28C8.01 9 7.86 9.15 7.86 9.39V24.78C7.86 26.67 7.02 27.78 5.52 27.78C4.02 27.78 3.18 26.46 3.09 24.36C3.09 24.09 2.94 23.97 2.7 23.97H0.78C0.51 23.97 0.39 24.12 0.39 24.39C0.48 27.93 2.37 30.33 5.46 30.33ZM15.6682 9C15.4282 9 15.2782 9.15 15.2782 9.42V24.81C15.2782 28.05 17.2882 30.33 20.4082 30.33C23.5282 30.33 25.5682 28.05 25.5682 24.81V9.42C25.5682 9.15 25.4182 9 25.1482 9H23.2582C23.0182 9 22.8382 9.15 22.8382 9.42V24.93C22.8382 26.64 21.9082 27.78 20.4082 27.78C18.9082 27.78 17.9782 26.64 17.9782 24.93V9.42C17.9782 9.15 17.8282 9 17.5882 9H15.6682ZM30.7327 30H32.6527C32.8927 30 33.0427 29.85 33.0427 29.58V14.07C33.0427 12.36 33.9727 11.22 35.4727 11.22C36.9727 11.22 37.9027 12.36 37.9027 14.07V29.58C37.9027 29.85 38.0827 30 38.3227 30H40.2127C40.4827 30 40.6327 29.85 40.6327 29.58V14.19C40.6327 10.95 38.5927 8.67 35.4727 8.67C32.3527 8.67 30.3427 10.95 30.3427 14.19V29.58C30.3427 29.85 30.4927 30 30.7327 30ZM45.5578 9.39V29.58C45.5578 29.85 45.7078 30 45.9778 30H47.8678C48.1078 30 48.2578 29.85 48.2578 29.58V9.39C48.2578 9.15 48.1078 9 47.8678 9H45.9778C45.7078 9 45.5578 9.15 45.5578 9.39ZM58.1859 30.3C61.3059 30.3 63.4659 28.02 63.4659 24.87V14.13C63.4659 10.98 61.3059 8.7 58.1859 8.7C55.0659 8.7 52.8759 10.98 52.8759 14.34V24.66C52.8759 28.02 55.0659 30.3 58.1859 30.3ZM58.1859 27.78C56.6559 27.78 55.6059 26.64 55.6059 24.78V14.22C55.6059 12.36 56.6559 11.22 58.1859 11.22C59.7159 11.22 60.7359 12.36 60.7359 14.01V24.99C60.7359 26.64 59.7159 27.78 58.1859 27.78ZM68.2795 30H70.1995C70.4395 30 70.5895 29.85 70.5895 29.58V22.08H73.0195L75.8695 29.64C75.9295 29.88 76.0495 30 76.2895 30H78.3295C78.5995 30 78.8095 29.82 78.7195 29.55L75.5095 21.45C77.0695 20.61 78.1795 18.93 78.1795 16.62V14.22C78.1795 10.95 76.0795 8.67 72.9895 8.67C69.9595 8.67 67.8895 10.95 67.8895 14.22V29.58C67.8895 29.85 68.0395 30 68.2795 30ZM70.5895 19.59V14.1C70.5895 12.36 71.5795 11.22 73.0195 11.22C74.4595 11.22 75.4495 12.36 75.4495 14.1V16.68C75.4495 18.45 74.4595 19.59 72.8995 19.59H70.5895Z" fill="black"/>
  <path d="M93.88 7.5H91.585V18H93.025V10.575L94.255 18H95.815L96.955 10.47V18H98.515V7.5H96.22L95.095 14.955L93.88 7.5ZM104.894 9H107.744V7.5H103.244V18H107.744V16.5H104.894V13.425H107.159V11.925H104.894V9ZM112.296 18H116.661V16.5H113.946V7.5H112.296V18ZM122.423 9.915C122.423 9.165 122.753 8.88 123.278 8.88C123.803 8.88 124.133 9.165 124.133 9.915V15.585C124.133 16.335 123.803 16.62 123.278 16.62C122.753 16.62 122.423 16.335 122.423 15.585V9.915ZM120.773 15.48C120.773 17.16 121.658 18.12 123.278 18.12C124.898 18.12 125.783 17.16 125.783 15.48V10.02C125.783 8.34 124.898 7.38 123.278 7.38C121.658 7.38 120.773 8.34 120.773 10.02V15.48Z" fill="#F9F4F4"/>
  <rect fill="#0C0101" height="19" stroke="black" width="54" x="82.5" y="3.5"/>
</svg>